<svg width="100" height="20" xmlns="http://www.w3.org/2000/svg">
  <polygon points="10,0 13,8 20,8 14.5,13 17,20 10,15 3,20 5.5,13 0,8 7,8" fill="#EF9546"/>
  <polygon points="30,0 33,8 40,8 34.5,13 37,20 30,15 23,20 25.5,13 20,8 27,8" fill="#EF9546"/>
  <polygon points="50,0 53,8 60,8 54.5,13 57,20 50,15 43,20 45.5,13 40,8 47,8" fill="#EF9546"/>
  <polygon points="70,0 73,8 80,8 74.5,13 77,20 70,15 63,20 65.5,13 60,8 67,8" fill="#EF9546"/>
  <polygon points="90,0 93,8 100,8 94.5,13 97,20 90,15 83,20 85.5,13 80,8 87,8" fill="#EF9546"/>
</svg>
